<svg xmlns="http://www.w3.org/2000/svg" width="22" height="20.07" viewBox="0 0 22 20.07"><svg x="5.235" y="3.035" width="11.53" height="14" viewBox="0 0 11.53 14"><path fill="currentColor" stroke-miterlimit="10" d="M0 1.44C0 .64.65 0 1.44 0h6.25c.38 0 .75.15 1.02.42l2.4 2.4c.27.27.42.64.42 1.02v8.72c0 .8-.65 1.44-1.44 1.44H1.44C.64 14 0 13.35 0 12.56zm1.44-.2c-.11 0-.21.09-.21.21v11.12c0 .11.09.21.21.21h8.65c.11 0 .21-.09.21-.21V3.85a.22.22 0 0 0-.06-.15l-2.4-2.4a.2.2 0 0 0-.15-.06zm4.94 2.05v1.24h1.24c.34 0 .62.28.62.62s-.28.62-.62.62H6.38v1.24c0 .34-.28.62-.62.62s-.62-.28-.62-.62V5.77H3.9c-.34 0-.62-.28-.62-.62s.28-.62.62-.62h1.24V3.29c0-.34.28-.62.62-.62s.62.28.62.62M3.91 9.47h3.71c.34 0 .62.28.62.62s-.28.62-.62.62H3.91c-.34 0-.62-.28-.62-.62s.28-.62.62-.62" font-family="none" font-size="none" font-weight="none" style="mix-blend-mode:normal" text-anchor="none"/></svg></svg>