<svg xmlns="http://www.w3.org/2000/svg" width="22" height="20.07" viewBox="0 0 22 20.07"><svg x="3.885" y="3.2350000000000003" width="14.23" height="13.6" viewBox="0 0 14.23 13.6"><path fill="currentColor" stroke-miterlimit="10" d="M9.83.06c2.14.09 2.72.21 3.46.95l.09.1c.59.63.73 1.19.81 2.79l.02.51a34 34 0 0 1 0 2.9c-.07 2.09-.19 2.66-.92 3.4l-.09.09c-.69.66-1.31.77-3.36.86l-.48.02-.98.03-.24.01c-.2.01-.3.01-.35.02l-.04.01-.07.04c-.04.03-.09.07-.17.14l-1.63 1.39c-.23.2-.52.3-.82.3-.7 0-1.26-.56-1.26-1.26v-.72l-.12-.01c-1.48-.09-2.03-.25-2.63-.82l-.18-.19C.28 9.99.14 9.43.06 7.83l-.02-.51a34 34 0 0 1 0-2.9c.07-2.09.19-2.66.92-3.4l.09-.09C1.65.36 2.2.2 3.68.11l.73-.04C5.28.03 6.19.01 7.12.01s1.84.02 2.71.06zM4.47 1.65c-1.55.07-1.98.13-2.3.39l-.09.08c-.33.34-.4.67-.46 2.33l-.01.46c-.01.31-.01.62-.01.93 0 .47.01.94.02 1.39l.01.23c.05 1.32.12 1.7.36 2l.09.1c.3.3.62.39 1.95.46l.59.03c.43.02.77.37.77.8v.75l1.04-.89c.23-.19.34-.28.49-.36l.07-.04c.06-.03.12-.06.18-.08.25-.09.41-.12.85-.14l.81-.02.94-.03c1.71-.07 2.06-.14 2.39-.48l.05-.05c.29-.32.36-.7.41-2.28l.01-.46c.01-.31.01-.62.01-.93 0-.47-.01-.94-.02-1.39-.06-1.66-.12-1.99-.46-2.33-.29-.29-.58-.38-1.76-.45l-.63-.03c-.85-.04-1.74-.05-2.65-.05s-1.8.02-2.65.05z" font-family="none" font-size="none" font-weight="none" style="mix-blend-mode:normal" text-anchor="none"/></svg></svg>