<svg xmlns="http://www.w3.org/2000/svg" width="22" height="22" viewBox="0 0 22 22"><svg x="0" y="0" width="22" height="22" viewBox="0 0 22 22"><path fill="currentColor" d="m7.356 12.108.37.006c.61.024.882.112 1.154.258.323.172.576.425.748.748l.074.15c.125.284.19.628.19 1.374v4.82l-.006.369c-.024.611-.112.882-.258 1.155a1.8 1.8 0 0 1-.748.748c-.297.159-.593.25-1.33.262L2.536 22c-.882 0-1.201-.092-1.524-.264a1.8 1.8 0 0 1-.748-.748c-.159-.298-.25-.593-.262-1.33L0 14.643c0-.882.092-1.202.264-1.524s.426-.576.748-.748l.165-.08c.255-.11.562-.172 1.166-.183zm.127 1.979H2.41l-.21.006-.199.015-.004.044a5 5 0 0 0-.017.365v5.074l.011.294.01.114.044.005q.128.014.365.017h4.947c.225 0 .385-.006.492-.017L7.891 20l.006-.043q.013-.128.016-.365l.001-4.947c0-.225-.007-.385-.017-.492l-.006-.044-.114-.01zM16.357.08c.323.097.596.242 1.126.755l3.547 3.544c.623.623.784.914.89 1.264.107.35.107.708 0 1.058l-.054.159c-.102.262-.274.525-.7.967l-3.545 3.547c-.398.398-.66.608-.89.735l1.507-.001.37.006c.61.024.881.112 1.154.258.322.172.576.425.748.748.172.322.264.642.264 1.524v4.82c0 .882-.092 1.201-.264 1.524a1.8 1.8 0 0 1-.748.748c-.298.159-.593.25-1.33.262L13.418 22c-.882 0-1.202-.092-1.524-.264a1.8 1.8 0 0 1-.748-.748c-.16-.298-.25-.593-.263-1.33l-.001-5.014c0-.882.092-1.202.264-1.524s.425-.576.748-.748l.165-.08c.255-.11.562-.172 1.165-.183h1.702c-.201-.11-.427-.285-.748-.594l-3.552-3.55c-.397-.397-.607-.66-.734-.889v1.506l-.006.37c-.024.61-.112.881-.258 1.154a1.8 1.8 0 0 1-.748.748c-.322.172-.642.264-1.524.264h-4.82c-.882 0-1.201-.092-1.524-.264a1.8 1.8 0 0 1-.748-.748c-.159-.298-.25-.593-.262-1.33L0 3.762C0 2.88.092 2.56.264 2.238s.426-.576.748-.748c.298-.16.593-.25 1.33-.263l5.014-.001c.882 0 1.202.092 1.524.264s.576.426.748.748l.074.15c.125.284.19.628.19 1.374v1.506c.111-.201.287-.428.598-.751L14.035.97c.623-.623.914-.784 1.264-.89.35-.107.708-.107 1.058 0m2.008 14.007h-5.074l-.21.006-.199.015-.015.199-.006.21v5.074l.006.21.015.198.044.005q.128.014.365.017h4.947c.224 0 .385-.006.492-.017l.043-.005.005-.043.011-.155.006-.21v-4.947c0-.225-.006-.385-.017-.492l-.005-.044-.114-.01zM15.828 2.006l-.151.13-.153.144-3.588 3.588-.144.153-.102.117-.028.033.028.035q.08.1.246.27l3.498 3.499q.236.235.36.335l.034.027.034-.027.117-.102.153-.144 3.499-3.498c.158-.158.267-.276.335-.36l.028-.035-.074-.087-.2-.216-3.588-3.588-.153-.144-.117-.102zm-8.345 1.2H2.41l-.21.005-.155.01L2 3.227l-.004.044a5 5 0 0 0-.017.365v5.074l.011.294.01.114.044.005q.128.014.365.017h4.947c.225 0 .385-.006.492-.017l.043-.005.006-.043q.013-.128.016-.365l.001-4.947c0-.224-.007-.385-.017-.492l-.006-.044-.114-.01z"/></svg></svg>