<svg xmlns="http://www.w3.org/2000/svg" width="22" height="20.07" viewBox="0 0 22 20.07"><svg x="4.105" y="3.285" width="13.79" height="13.5" viewBox="0 0 13.79 13.5"><path fill="currentColor" stroke-miterlimit="10" d="M6.06.25c.51-.33 1.16-.33 1.67 0l.12.09 5.36 4.29.12.1c.26.25.42.59.45.94l.01.15v6.14l-.01.14c-.07.74-.65 1.32-1.39 1.39l-.14.01H8.68l-.09-.01a.5.5 0 0 1-.41-.41l-.01-.09V8.91H5.63v4.08l-.01.09a.5.5 0 0 1-.41.41l-.09.01H1.55l-.14-.01C.67 13.42.09 12.84.02 12.1l-.01-.14V5.82l.01-.15c.04-.36.2-.69.45-.94l.12-.1L5.95.34zm.97.8a.48.48 0 0 0-.37.04l-.08.05-5.36 4.29-.07.06q-.09.105-.12.24l-.01.09v6.14l.01.09c.04.21.2.37.41.41l.09.01h3.06V8.39l.01-.09a.5.5 0 0 1 .41-.41l.09-.01h3.57l.09.01c.21.04.38.2.41.41l.01.09v4.08h3.06l.09-.01c.21-.04.37-.2.41-.41l.01-.09V5.82l-.01-.09a.55.55 0 0 0-.12-.24l-.07-.06-5.36-4.29-.08-.05z" font-family="none" font-size="none" font-weight="none" style="mix-blend-mode:normal" text-anchor="none"/></svg></svg>