<svg xmlns="http://www.w3.org/2000/svg" width="22" height="22" viewBox="0 0 22 22"><svg x="0" y="0.9649999999999999" width="22" height="20.07" viewBox="0 0 22 20.07"><svg x="0" y="0.03500000000000014" width="22" height="20" viewBox="0 0 22 20"><path fill="currentColor" d="M9.539.51C11 .49 12.459.5 13.926.536l.995.027c3.319.11 4.394.368 5.543 1.52 1.252 1.258 1.432 2.298 1.52 6.419l.014.998q.007.997-.014 1.996l-.008.346c-.091 3.835-.296 4.851-1.512 6.072-1.15 1.153-2.224 1.412-5.543 1.52l-.67.02-1.79.036c-1.462.018-2.92.009-4.387-.028l-.995-.027c-3.319-.11-4.394-.368-5.543-1.52C.392 16.765.143 15.797.041 12.49l-.025-.994c-.021-1-.021-1.994 0-2.994l.032-1.237C.15 4.225.42 3.204 1.536 2.085 2.648.969 3.691.69 6.765.575l.985-.03Zm2.897 2c-1.437-.02-2.87-.01-4.312.026l-.931.026c-2.797.09-3.579.271-4.24.934l-.067.07c-.61.653-.775 1.448-.85 4.117l-.015.601-.02 1.232q-.007.967.015 1.938c.075 3.543.21 4.32.937 5.05l.07.067c.648.608 1.47.78 4.17.867l.608.018 1.763.035c1.437.018 2.87.009 4.312-.027l.635-.017c3.04-.087 3.852-.257 4.536-.943l.064-.067c.587-.624.76-1.34.842-3.812l.031-1.17c.021-.972.021-1.938 0-2.91-.075-3.542-.21-4.318-.937-5.049l-.07-.066c-.648-.61-1.47-.782-4.17-.868l-.608-.018Zm5.002 2.874a1 1 0 0 1-.205 1.314l-.094.068-3.294 2.122c-2.172 1.399-3.357 1.447-5.461.144l-.23-.144-3.293-2.122a1 1 0 0 1 .982-1.738l.101.057 3.294 2.121.373.235c1.166.711 1.612.711 2.778 0l.373-.235 3.294-2.121a1 1 0 0 1 1.382.3"/></svg></svg></svg>