<svg xmlns="http://www.w3.org/2000/svg" width="22" height="22" viewBox="0 0 22 22"><svg x="0.8350000000000009" y="0" width="20.33" height="22" viewBox="0 0 20.33 22"><path fill="currentColor" stroke-miterlimit="10" d="M10.17 0c.75 0 1.46.01 2.14.02.89.02 1.74.32 2.43.85 1.7 1.32 2.86 2.47 4.14 4.11.92 1.18 1.42 2.66 1.44 4.19.01.6.01 1.21.01 1.83 0 .47 0 .93-.01 1.39l-.02 1.26c.02.29-.04 1.23-.04 1.23-.03 1-.08 2-.14 2.99a4.19 4.19 0 0 1-3.91 3.93c-1.99.14-3.84.2-6.04.2s-4.05-.06-6.04-.2a4.19 4.19 0 0 1-3.91-3.93C.08 15.63.01 13.33.01 11s.07-4.63.21-6.87C.35 2.02 2.02.34 4.13.2c2-.14 3.84-.2 6.04-.2M4.26 2.2c-1.11.08-1.98.96-2.05 2.06C2.07 6.46 2 8.72 2 11c0 2.29.07 4.54.21 6.74.07 1.1.95 1.98 2.05 2.06 1.95.13 3.75.2 5.91.2 2.15 0 3.96-.06 5.91-.2 1.11-.08 1.98-.96 2.05-2.06.08-1.33.14-2.69.18-4.05-.22-3.34-1.86-4.46-4.72-4.54-1.41-.04-2.55-1.11-2.63-2.49l-.01-.17V2h-.78c-2.15 0-3.96.06-5.91.2m8.68-.05V6.5c0 .36.29.65.69.66 1.91.06 3.5.54 4.65 1.57-.1-.93-.44-1.8-.99-2.51-1.17-1.5-2.21-2.54-3.78-3.75-.13-.1-.27-.18-.42-.25z" font-family="none" font-size="none" font-weight="none" style="mix-blend-mode:normal" text-anchor="none"/></svg></svg>