<svg xmlns="http://www.w3.org/2000/svg" width="22" height="22" viewBox="0 0 22 22"><svg x="0" y="1" width="22" height="20" viewBox="0 0 22 20"><path fill="#5A5A5A" d="M28.8437631,23.5368479 L28.9392706,23.6203149 L31.6594778,26.3405222 C31.9933457,26.6743901 32.0211681,27.1984104 31.7429448,27.5639703 L31.6594778,27.6594778 L28.9392706,30.3796851 C28.575051,30.7439046 27.9845345,30.7439046 27.6203149,30.3796851 C27.286447,30.0458172 27.2586247,29.5217969 27.5368479,29.1562369 L27.6203149,29.0607294 L29.6804444,27 L27.6203149,24.9392706 C27.286447,24.6054027 27.2586247,24.0813824 27.5368479,23.7158224 L27.6203149,23.6203149 C27.9541828,23.286447 28.4782031,23.2586247 28.8437631,23.5368479 Z M24.3796851,23.6203149 C24.713553,23.9541828 24.7413753,24.4782031 24.4631521,24.8437631 L24.3796851,24.9392706 L22.3194444,27 L24.3796851,29.0607294 C24.713553,29.3945973 24.7413753,29.9186176 24.4631521,30.2841776 L24.3796851,30.3796851 C24.0458172,30.713553 23.5217969,30.7413753 23.1562369,30.4631521 L23.0607294,30.3796851 L20.3405222,27.6594778 C20.0066543,27.3256099 19.9788319,26.8015896 20.2570552,26.4360297 L20.3405222,26.3405222 L23.0607294,23.6203149 C23.424949,23.2560954 24.0154655,23.2560954 24.3796851,23.6203149 Z M13.7497814,11.7853502 L18.0494767,11.8087432 C18.691293,11.8088803 19.3150649,12.0122214 19.8339292,12.3883491 L20.0028794,12.5200828 L21.2067833,13.6299737 L21.8296989,14.2520993 C22.1547994,14.5772979 22.5707552,14.7929161 23.0136957,14.8722972 L23.2049932,14.8978989 L23.4102906,14.9071749 L28.66091,14.9071749 C29.5146843,14.9070865 30.3291074,15.266182 30.9048841,15.8965881 C31.3745574,16.4108238 31.6514887,17.0686278 31.6940571,17.7648137 L31.6997552,17.9747157 L31.6873935,18.2208651 L31.5009944,20.2788782 C30.965388,20.1214585 30.3140775,20.0288342 29.3971092,20.0057346 L29.5744605,18.0283615 C29.5976452,17.7717994 29.5118626,17.517315 29.3380913,17.3271436 C29.1643322,17.1369855 28.9185934,17.0286634 28.6609516,17.0286634 L13.338832,17.0286634 C13.0811902,17.0286634 12.8354514,17.1369855 12.6616923,17.3271436 C12.5463684,17.4533514 12.4693416,17.60844 12.4378636,17.7671768 L12.4229088,17.8865192 L12.4253003,18.0281103 L13.2652706,27.2585542 C13.3005523,27.6489835 13.578685,27.9681108 13.9380264,28.0628933 L14.0481034,28.0844446 L14.1774609,28.0931644 L17.0007303,28.095456 C17.0084601,29.0076917 17.0774729,29.6734915 17.2038969,30.2156173 L14.1773018,30.2146528 C12.7440035,30.2140845 11.5172603,29.2140118 11.2112838,27.8299896 L11.1778841,27.6550316 L11.1523376,27.4510577 L10.3123603,18.2205368 C10.2624429,17.6669567 10.365266,17.1081073 10.5987544,16.6600637 L10.6923944,16.497468 L10.759,16.402 L10.708955,14.8239871 C10.708955,13.3441657 11.7702334,12.101356 13.1912925,11.8368503 L13.370748,11.808936 L13.5465522,11.7920052 L13.7497814,11.7853502 Z M13.758,13.906 L13.6337083,13.9137868 C13.2622764,13.9595934 12.9579593,14.2281298 12.8629598,14.5709778 L12.8408817,14.6759131 L12.8304164,14.7942665 L12.832,14.949 L12.9373473,14.9334506 L13.0773112,14.9185626 L13.338811,14.9071749 L19.475,14.906 L18.6990517,14.1989577 C18.5846699,14.0845413 18.4428037,14.0031247 18.2947436,13.9622967 L18.1828699,13.9394045 L18.0471891,13.9302257 L13.758,13.906 Z" transform="translate(-10 -11)"/></svg></svg>