<svg xmlns="http://www.w3.org/2000/svg" width="22" height="20.07" viewBox="0 0 22 20.07"><svg x="4.86" y="3.035" width="12.28" height="14" viewBox="0 0 12.28 14"><path fill="currentColor" stroke-miterlimit="10" d="M1.82.37a2.04 2.04 0 0 1 2.22 1.57c.23 1.01-.33 2.04-1.31 2.39v5.69c.94.33 1.5 1.29 1.34 2.28a2.05 2.05 0 0 1-4.04 0c-.17-.98.4-1.94 1.34-2.28V4.33A2.04 2.04 0 0 1 .01 2.4C.01 1.36.79.49 1.82.37m5.52-.3c.07-.07.16-.08.25-.05.09.04.14.12.14.21v1.5h.91c1.26 0 2.27 1.02 2.27 2.27v6.03c.94.33 1.5 1.29 1.34 2.28a2.05 2.05 0 0 1-4.04 0c-.17-.98.4-1.94 1.34-2.28V4c0-.5-.41-.91-.91-.91h-.91v1.5c0 .09-.06.18-.14.21-.09.04-.18.02-.25-.05L5.16 2.57a.24.24 0 0 1-.07-.16c0-.06.02-.12.07-.16zM1.23 2.41c0 .45.37.82.82.82s.82-.37.82-.82-.37-.82-.82-.82-.82.37-.82.82m0 9.54c0 .45.37.82.82.82s.82-.37.82-.82-.37-.82-.82-.82-.82.37-.82.82m9 .82c.45 0 .82-.37.82-.82s-.37-.82-.82-.82-.82.37-.82.82.37.82.82.82" font-family="none" font-size="none" font-weight="none" style="mix-blend-mode:normal" text-anchor="none"/></svg></svg>