<svg xmlns="http://www.w3.org/2000/svg" width="22" height="22" viewBox="0 0 22 22"><svg x="0" y="0.9649999999999999" width="22" height="20.07" viewBox="0 0 22 20.07"><svg x="0.5" y="0.4450000000000003" width="21" height="19.18" viewBox="0 0 21 19.18"><path fill="currentColor" stroke-miterlimit="10" d="m7.25 0 .13.01.14.02.73.12c.38.07.8.15 1.24.25 1.35.3 2.7.68 3.98 1.15l.38.15.34-.06.51-.11c.09-.02.18-.04.28-.06 1.08-.25 2.22-.57 3.39-.98s2.43.39 2.49 1.65l.04.77c.06 1.46.1 3.22.11 5.26v1.11L21 10.33c-.01 1.54-.05 2.89-.09 4.06l-.02.38-.03.72c-.05 1.03-.7 1.93-1.66 2.3-1.66.63-3.47 1.14-5.31 1.38-.16.02-.33 0-.48-.06l-.35-.13-.78-.27c-.5-.17-1.04-.34-1.6-.5-1.06-.3-2.1-.54-3.08-.7l-.35-.05-.45.08-.51.11c-.09.02-.18.04-.28.06-1.08.25-2.22.57-3.39.98S.19 18.3.13 17.04l-.03-.72c-.06-1.36-.1-2.97-.11-4.84v-1.45L0 8.94c.01-1.6.05-2.99.1-4.19l.05-1.08c.05-1.03.7-1.93 1.66-2.3C3.28.81 4.88.35 6.51.08l.61-.09zm11.7 2.3-.57.2c-.61.2-1.22.38-1.81.54l-.59.15-.58.14-.41.09c-.07.01-.13.03-.2.04v13.63c.91-.18 1.81-.43 2.68-.71l.52-.18.52-.19c.25-.1.42-.33.43-.62l.05-1.09c.06-1.4.09-3.08.1-5.04V8.2l-.01-1.1c-.01-1.25-.04-2.38-.07-3.38l-.02-.42zM8.11 2.07v13.6c1 .17 2.04.41 3.09.71.37.1.73.21 1.07.32l.61.2V3.37c-1.02-.38-2.1-.7-3.18-.96l-.63-.15c-.34-.07-.66-.14-.96-.2zm-1.91.02c-1.28.25-2.54.63-3.71 1.08-.25.1-.42.33-.43.62L2 5.18c-.04 1.12-.07 2.41-.08 3.87v1.92l.01 1.1c.01 1.25.04 2.38.07 3.38l.02.42.04 1 .57-.19c.61-.2 1.22-.38 1.81-.54l.59-.15.58-.14.41-.09c.07-.01.13-.03.2-.04z" font-family="none" font-size="none" font-weight="none" style="mix-blend-mode:normal" text-anchor="none"/></svg></svg></svg>