<svg xmlns="http://www.w3.org/2000/svg" width="22" height="22" viewBox="0 0 22 22"><svg x="0.5" y="0.5" width="21" height="21" viewBox="0 0 21 21"><path fill="currentColor" stroke-miterlimit="10" d="M20.71 19.23c.19.2.29.46.29.73s-.11.53-.29.73c-.1.1-.21.18-.34.23s-.27.08-.4.08c-.14 0-.28-.03-.4-.08a1 1 0 0 1-.34-.23l-3.86-3.86a9.5 9.5 0 0 1-6.68 2.05 9.44 9.44 0 0 1-6.26-3.11A9.5 9.5 0 0 1 .02 9.2a9.42 9.42 0 0 1 2.76-6.42 9.444 9.444 0 0 1 12.98-.35 9.44 9.44 0 0 1 3.11 6.26c.2 2.41-.53 4.8-2.05 6.69l3.89 3.86zm-6.05-4.56a7.35 7.35 0 0 0 2.15-5.2c0-1.45-.43-2.88-1.24-4.08a7.35 7.35 0 0 0-7.54-3.13c-1.42.28-2.73.98-3.76 2.01a7.33 7.33 0 0 0-2.01 3.76c-.28 1.43-.14 2.9.42 4.25.56 1.34 1.5 2.49 2.71 3.3s2.63 1.24 4.08 1.24c1.95 0 3.82-.77 5.19-2.15" font-family="none" font-size="none" font-weight="none" style="mix-blend-mode:normal" text-anchor="none"/></svg></svg>