<svg xmlns="http://www.w3.org/2000/svg" width="22" height="20.07" viewBox="0 0 22 20.07"><svg x="0.5" y="0" width="21" height="20.07" viewBox="0 0 21 20.07"><path fill="currentColor" stroke-miterlimit="10" d="M10.5 0c1.1 0 2.18.02 3.23.05l.78.03c3.06.13 3.95.3 4.99 1.29l.11.11.14.14c.8.86 1.04 1.62 1.16 3.56l.03.56.03.75c.02.7.04 1.41.04 2.14 0 .48-.01.96-.02 1.43l-.02.7c-.1 2.97-.26 3.86-1.25 4.9l-.11.11-.13.13c-.95.91-1.81 1.11-4.37 1.24l-.6.03-.71.03-.72.02-1.08.02c-.26.01-.4.02-.48.03l-.04.01-.06.02-.1.05-.1.08-.15.12-2.4 2.05c-.34.29-.77.45-1.21.45-.98 0-1.78-.76-1.86-1.72l-.01-.15v-1.06l-.18-.01c-2.09-.13-2.92-.35-3.77-1.11l-.12-.11-.27-.27C.45 14.76.21 14 .09 12.06l-.03-.56-.03-.75c-.02-.7-.04-1.41-.04-2.14 0-.48.01-.96.02-1.43l.02-.7c.1-2.97.26-3.86 1.25-4.9l.11-.11.13-.13C2.33.57 3.07.3 4.86.16L5.4.12 6.48.07c1.29-.05 2.63-.08 4.01-.08zm0 2c-1.07 0-2.13.02-3.15.05l-.76.03-1.06.05-.45.03c-1.33.1-1.7.22-2.09.56l-.18.17-.12.12c-.49.54-.57 1.01-.66 3.56a70 70 0 0 0-.04 2.07c0 .47.01.93.02 1.38l.02.67.03.74c.09 1.9.19 2.32.56 2.75l.05.06.23.23c.43.41.77.54 2.16.64l.63.04c1.01.06 1.81.85 1.88 1.84l.01.15v.76l2.2-1.88c.13-.1.23-.18.32-.25l.09-.07.14-.08.1-.05c.1-.05.2-.1.3-.14l.16-.05.06-.02.15-.03.19-.03c.13-.02.28-.03.49-.03l1.47-.04.46-.01 1.23-.05c2.17-.1 2.62-.22 3.07-.63l.05-.05.12-.11c.59-.6.68-.94.78-3.68.02-.68.04-1.37.04-2.07 0-.47-.01-.93-.02-1.38l-.02-.68-.03-.74c-.08-1.81-.18-2.28-.53-2.71L18.3 3l-.12-.12c-.59-.6-.95-.69-3.76-.81-1.26-.05-2.58-.08-3.92-.08z" font-family="none" font-size="none" font-weight="none" style="mix-blend-mode:normal" text-anchor="none"/></svg></svg>