<svg xmlns="http://www.w3.org/2000/svg" width="22" height="22" viewBox="0 0 22 22"><svg x="2" y="0" width="18" height="22" viewBox="0 0 18 22"><path fill="currentColor" d="M9.58 0c-.696 0-1.347.349-1.734.929l-6.513 9.17c-.266.399-.4.839-.4 1.288l.006.157a2.28 2.28 0 0 0 2.274 2.123l3.12-.001v6.248a2.086 2.086 0 0 0 3.821 1.157l6.513-9.17c.266-.399.4-.839.4-1.288l-.006-.157a2.28 2.28 0 0 0-2.274-2.123h-3.121V2.086A2.086 2.086 0 0 0 9.582 0m0 2c.048 0 .087.038.087.086v7.247a1 1 0 0 0 1 1h4.12a.28.28 0 0 1 .233.435l-6.513 9.17c-.033.048-.06.062-.088.062a.086.086 0 0 1-.086-.086v-7.247a1 1 0 0 0-1-1h-4.12a.28.28 0 0 1-.233-.435l6.513-9.17c.033-.048.06-.062.088-.062"/></svg></svg>