<svg xmlns="http://www.w3.org/2000/svg" width="22" height="22" viewBox="0 0 22 22"><svg x="0" y="0.9649999999999999" width="22" height="20.07" viewBox="0 0 22 20.07"><svg x="0" y="1.3399999999999999" width="22" height="17.39" viewBox="0 0 22 17.39"><path fill="currentColor" stroke-miterlimit="10" d="m19.29.16.05.03.12.1c.23.2.43.42.62.64l.18.23.16.22.16.24.1.16.14.25.04.08.13.26.11.25.1.27.1.28q.18.555.3 1.17c.26 1.29.36 3.27.39 4.94l.01.41c.01.51.01.98.01 1.38L22 12.4c0 .4-.05.79-.14 1.16-.03.14-.08.29-.12.43a4.9 4.9 0 0 1-.7 1.36c-.05.07-.11.14-.17.21-.23.28-.5.54-.78.77l-.16.12c-.75.54-1.66.88-2.65.93l-.27.01c-2.76 0-4.99-2.24-4.99-4.99 0-.27.02-.54.06-.8a3.068 3.068 0 0 0-2.12 0c.04.26.06.53.06.8a4.99 4.99 0 0 1-4.78 4.99h-.22c-1.09 0-2.1-.35-2.92-.94l-.16-.12c-.43-.34-.8-.74-1.1-1.2L.7 14.9c-.07-.12-.14-.25-.2-.39-.08-.17-.15-.35-.21-.53a3 3 0 0 1-.12-.43c-.07-.28-.11-.57-.13-.87l-.01-.62c-.01-.42-.01-1.21 0-2.15v-.24c.01-.53.02-1.1.05-1.68l.04-.89c.06-1.03.16-2.02.31-2.78.07-.35.15-.68.25-1l.1-.31.08-.23.11-.27.12-.27.12-.23.14-.25.13-.22.12-.18.12-.16.08-.11c.17-.22.35-.43.56-.63L2.6.23 2.64.2a.938.938 0 0 1 1.32.1l.07.09.04.06c.26.38.21.88-.09 1.22l-.26.25-.11.12-.14.16-.16.2-.14.2-.14.23c-.05.1-.11.19-.15.3-.05.11-.1.22-.15.34-.1.25-.19.53-.26.83l-.05.23-.04.2c-.23 1.14-.31 2.13-.34 3.66.76-.57 1.69-.92 2.7-.98l.28-.01.24.01c1.59.08 2.99.9 3.85 2.12l.13.2c.55-.21 1.15-.32 1.77-.32l.27.01c.42.02.83.1 1.22.22l.29.1c.84-1.33 2.3-2.24 3.98-2.32l.24-.01c.93 0 1.8.25 2.55.7l.22.14.21.15-.02-.63c0-.1-.01-.2-.01-.29-.04-.89-.11-1.61-.24-2.36l-.07-.38q-.045-.225-.09-.42c-.07-.3-.16-.57-.26-.83-.05-.12-.09-.23-.15-.34-.06-.12-.11-.23-.18-.34l-.13-.21-.12-.17-.13-.17-.17-.2-.12-.13-.16-.15a1 1 0 0 1-.17-1.31l.04-.06c.29-.43.87-.55 1.3-.26zM5.01 9.4c-1.65 0-3 1.34-3 3 0 1.6 1.25 2.9 2.82 2.99l.18.01c1.65 0 3-1.34 3-3a3 3 0 0 0-2.8-2.99zm11.98 0c-1.31 0-2.42.84-2.83 2a2.993 2.993 0 0 0 2.65 3.98l.18.01c1.65 0 3-1.34 3-3 0-1.65-1.34-3-3-3z" font-family="none" font-size="none" font-weight="none" style="mix-blend-mode:normal" text-anchor="none"/></svg></svg></svg>