<svg xmlns="http://www.w3.org/2000/svg" width="22" height="20.07" viewBox="0 0 22 20.07"><svg x="1.6999999999999993" y="2.0700000000000003" width="18.6" height="15.93" viewBox="0 0 18.6 15.93"><path fill="currentColor" stroke-miterlimit="10" d="M16.7.15c.64-.33 1.42-.08 1.75.55.33.64.08 1.42-.55 1.75-2.11 1.1-4.23 3.11-6.28 5.77a46 46 0 0 0-3.19 4.81c-.2.34-.38.67-.55.99l-.32.6c-.15.28-.25.48-.29.58-.44.92-1.73 1-2.27.13-.42-.66-1.01-1.33-1.72-1.96-.57-.51-1.19-.97-1.81-1.38l-.29-.19c-.22-.14-.4-.24-.5-.3a1.299 1.299 0 0 1 1.24-2.28l.21.12a18.42 18.42 0 0 1 2.88 2.09c.22.2.43.4.64.6l.23.24.3-.53c1-1.73 2.13-3.47 3.38-5.09C11.82 3.71 14.2 1.46 16.7.16z" font-family="none" font-size="none" font-weight="none" style="mix-blend-mode:normal" text-anchor="none"/></svg></svg>