<svg xmlns="http://www.w3.org/2000/svg" width="9" height="9" viewBox="0 0 9 9"><path fill="currentColor" stroke-miterlimit="10" d="M8.85.15c.17.17.19.44.06.64l-.06.07L5.2 4.51l3.65 3.65c.2.2.2.51 0 .71-.17.17-.44.19-.64.06l-.07-.06-3.65-3.65L.84 8.87c-.2.2-.51.2-.71 0a.51.51 0 0 1-.06-.64l.06-.07 3.65-3.65L.13.86c-.2-.2-.2-.51 0-.71C.3-.02.57-.04.77.09l.07.06L4.49 3.8 8.14.15c.2-.2.51-.2.71 0" font-family="none" font-size="none" font-weight="none" style="mix-blend-mode:normal" text-anchor="none"/></svg>