<svg xmlns="http://www.w3.org/2000/svg" width="137" height="28" viewBox="0 0 137 28"><path fill="currentColor" d="M49.28 25.5c3.929 0 6.541-2.812 6.541-7.02V7.491h-3.988v.738c-.898-.598-1.995-.937-3.231-.937-3.37 0-5.604 2.613-5.604 6.521 0 3.91 2.254 6.522 5.624 6.522 1.197 0 2.234-.32 3.111-.878-.3 1.257-1.236 2.054-2.553 2.054-.797 0-1.615-.339-2.074-.857l-3.55 1.137c.579 2.233 2.852 3.709 5.724 3.709m0-9.154c-1.376 0-2.293-1.017-2.293-2.533 0-1.515.977-2.532 2.433-2.532s2.413 1.017 2.413 2.532-1.017 2.533-2.553 2.533m14.26 4.288c4.028 0 6.7-2.653 6.7-6.601 0-3.989-2.672-6.661-6.7-6.661-4.03 0-6.721 2.672-6.721 6.66 0 3.95 2.692 6.602 6.72 6.602m-.02-3.989c-1.636 0-2.713-1.057-2.713-2.612 0-1.596 1.077-2.673 2.712-2.673s2.733 1.077 2.733 2.673c0 1.555-1.097 2.612-2.733 2.612m13.341 3.89c1.237 0 2.314-.34 3.211-.938v.857h3.989V4.5h-3.989v3.889c-.897-.598-1.994-.937-3.23-.937-3.371 0-5.605 2.612-5.605 6.54 0 3.93 2.254 6.542 5.624 6.542m.658-3.99c-1.376 0-2.293-1.036-2.293-2.552 0-1.536.977-2.553 2.433-2.553s2.413 1.017 2.413 2.553c0 1.516-1.037 2.553-2.553 2.553m13.163 3.99c1.236 0 2.313-.34 3.21-.938v.857h3.99V4.5h-3.99v3.889c-.897-.598-1.994-.937-3.23-.937-3.37 0-5.604 2.612-5.604 6.54 0 3.93 2.253 6.542 5.624 6.542m.658-3.99c-1.376 0-2.294-1.036-2.294-2.552 0-1.536.978-2.553 2.433-2.553 1.456 0 2.414 1.017 2.414 2.553 0 1.516-1.037 2.553-2.553 2.553m21.439 3.99v-3.99c-.639-.299-1.077-.717-1.077-1.036V7.49h-3.989v.838c-.897-.598-1.994-.937-3.23-.937-3.371 0-5.605 2.632-5.605 6.561 0 3.949 2.254 6.581 5.624 6.581 1.835 0 3.33-.738 4.348-1.994.897 1.017 2.253 1.735 3.929 1.994m-7.619-3.99c-1.376 0-2.293-1.056-2.293-2.592s.977-2.573 2.433-2.573 2.413 1.037 2.413 2.573-1.037 2.593-2.553 2.593m12.604 3.91v-6.003c0-1.716 1.995-2.852 4.966-2.852V7.452c-2.014 0-3.75.698-4.966 1.914V7.491h-3.988v12.963zm11.587.08c1.237 0 2.314-.34 3.211-.938v.857h3.989V4.5h-3.989v3.889c-.897-.598-1.994-.937-3.23-.937-3.371 0-5.605 2.612-5.605 6.54 0 3.93 2.254 6.542 5.624 6.542m.658-3.99c-1.376 0-2.293-1.036-2.293-2.552 0-1.536.977-2.553 2.433-2.553s2.413 1.017 2.413 2.553c0 1.516-1.037 2.553-2.553 2.553M20.723.123c.85.092 1.983.301 2.735.505l.719.207q.19.057.263.084l.602.224c.17.064.345.133.457.18l.16.07.055.021-.035-.01-.085-.01.022.006c.231.055 1.008.443 1.428.674l.19.108.185.114c.125.047.595.356.971.625l.274.2c.714.544 1.432 1.195 1.855 1.685l.177.208.051.01c1.062.208 1.965.888 2.692 2.003.277.423.474.8.689 1.314l.096.244c.109.302.34.99.508 1.512l.07.225c.117.382.324 1.124.486 1.74l.264 1.04c.043.173.222 1.027.313 1.485l.038.196c.18.976.224 1.433.226 2.313.001 1.296-.147 2.014-.616 2.95-.29.579-.585.93-1.127 1.341-.529.402-.888.553-1.673.708-.19.038-.397.04-.652.011a3.3 3.3 0 0 1-1.177-.337l-.155-.085-.026.043a9 9 0 0 1-1.225 1.601l-.327.338-.257.254c-.65.64-.99.907-1.834 1.468-1.54 1.024-3.379 1.774-5.46 2.23-1.45.317-3.185.425-5.345.336-1.244-.05-3.311-.333-4.713-.639l-.667-.157a59 59 0 0 1-1.3-.331l-.242-.071c-1-.303-2.193-.751-2.962-1.114l-.297-.147c-1.355-.708-2.136-1.238-2.941-2.017l-.27-.268c-.667-.685-.998-1.118-1.433-1.898l-.148-.27-.18-.34-.092-.19-.004-.017-.08-.188c-.31-.68-.664-1.885-.838-2.835-.112-.614-.123-1.96-.015-2.468.092-.44.289-1.09.43-1.419a9 9 0 0 1 .876-1.64l.284-.422c.186-.273.274-.389.497-.663l.428-.526.25-.312.497-.584 1.602-1.941.668-.825.2-.24.28-.346c.31-.378.727-.868 1-1.177l.204-.224c.093-.098.228-.268.34-.426l.111-.168c.38-.612.844-1.203 1.37-1.745.228-.236.643-.602.849-.75l.315-.214c.477-.328 1.197-.625 1.81-.748.444-.09 1.318-.09 1.685.005l.043.012c.047.015.018.012.062-.002.595-.195 1.915-.46 2.697-.544 1.156-.123 2.91-.115 4.152.018m-2.188 1.375c-1.24-.002-2.173.093-3.183.326l-.545.129c-1.376.317-3.016 1.037-4.193 1.839l-.191.132-.415.295a7 7 0 0 0-.368.284l-.107.097-.165.145c-.63.546-1.217 1.171-2.032 2.17l-.68.842-.28.34-.468.57-.937 1.12-.28.34-.306.358c-.857 1.013-1.405 1.73-1.915 2.505-.196.298-.627 1.18-.731 1.498l-.044.138a8 8 0 0 0-.201.84c-.037.18-.038 1.136 0 1.46l.004.034c.02.127.098.5.171.814.43 1.823 1.106 3.16 2.195 4.343.35.38 1.171 1.053 1.65 1.356l.423.26c.067.042.155.094.246.146l.327.18.388.19.63.293.256.112.071.02.154.066c.515.238 2.516.832 3.48 1.039l.847.167c.46.092 1.726.287 2.53.39.96.12 3.166.173 4.234.1a15.7 15.7 0 0 0 5.45-1.366l.252-.118.32-.161c.193-.103.428-.236.84-.474.373-.216 1.166-.812 1.633-1.23.722-.646 1.355-1.361 1.736-1.952l.268-.432-.037-.045c-.756-.905-1.213-2.008-1.51-3.616l-.092-.507-.472-2.5-.303-1.753-.095-.605-.045-.297-.14-.996c-.098-.697-.099-2.07.008-2.515.184-.77.484-1.369.932-1.846.289-.308.548-.517.86-.677l.181-.085-.056-.054c-.253-.24-.57-.514-.868-.748l-.08-.063c-1.517-1.175-3.496-2.067-5.517-2.485l-.759-.151-.11-.02c-.932-.171-1.768-.24-2.961-.242m11.447 4.991c-.36.05-.478.092-.735.262-.413.273-.708.746-.874 1.437-.094.394-.055 1.647.086 2.483l.044.257.152.989.335 1.951.345 1.892.249 1.262c.17.884.326 1.356.629 1.925.235.44.382.645.703.978.355.368.647.553 1.005.65.223.06.745.049.931-.017.443-.156.924-.538 1.191-.949l.065-.1a1.7 1.7 0 0 0 .205-.412l.06-.18c.163-.484.233-.854.274-1.445l.01-.163c.032-.676-.039-1.304-.299-2.652l-.09-.448A57 57 0 0 0 33.457 11l-.112-.383c-.3-.993-.624-1.839-.922-2.408-.274-.525-.898-1.241-1.25-1.45-.402-.24-.792-.327-1.19-.272M14.469 4.334l.278.008c.644.028 1.745.133 2.127.204l.331.067.092.017c1.52.273 3.039.836 4.189 1.552.858.534 1.8 1.432 2.315 2.206.306.46.704 1.313.861 1.847.277.939.34 2.092.17 3.13-.237 1.443-1.054 2.952-2.165 3.999-1.346 1.268-2.934 2.034-5.074 2.446-1.166.225-3.205.307-4.719.19a26 26 0 0 1-3.28-.44l-.902-.196-.707-.188a17 17 0 0 1-1.153-.359l-.577-.238a25 25 0 0 1-.637-.294 7 7 0 0 1-1.09-.688c-.64-.52-1.002-1.034-1.173-1.662-.103-.38-.098-.978.012-1.419.108-.432.339-.995.557-1.37l.183-.292c0-.018.268-.409.45-.658l.254-.333c.136-.174.308-.387.563-.697l2.298-2.774.891-1.069c.938-1.126 1.633-1.735 2.513-2.203.971-.516 2.145-.788 3.393-.786m4.619 6.093c-.271-.003-.395.01-.51.051a1.9 1.9 0 0 0-.709.42c-.323.304-.511.625-.724 1.256l-.351 1.077c-.188.561-.232.822-.195 1.15.083.748.541 1.227 1.305 1.364.161.03.526-.013.742-.086.653-.221 1.047-.682 1.369-1.618l.184-.57.011-.028c.06-.142.275-.823.314-.996.054-.235.054-.77 0-.935-.165-.506-.446-.823-.887-1.004-.163-.067-.243-.079-.55-.081m-8.69-2.013c-.407 0-.74.138-1.075.443-.426.39-.626.816-1.234 2.624-.27.806-.047 1.533.563 1.829.229.11.6.147.87.085.286-.066.536-.218.813-.495.225-.225.291-.317.43-.593.144-.291.364-.816.51-1.215l.066-.187c.214-.63.247-.727.253-.97l.002-.151c.001-.358-.03-.519-.14-.732-.228-.44-.558-.639-1.057-.638"/></svg>