<svg xmlns="http://www.w3.org/2000/svg" width="16.2" height="15.45" viewBox="0 0 16.2 15.45"><path fill="currentColor" stroke-miterlimit="10" d="M8.1 0c.83 0 1.64.01 2.43.04l.78.03c2.45.1 3.08.23 3.87 1.02.69.7.87 1.26.96 3.02l.03.79.02.56c.01.38.01.76.01 1.15s0 .77-.01 1.15l-.02.56-.01.28c-.08 2.16-.23 2.76-.98 3.52-.69.7-1.27.88-3.09.99l-.78.04-.56.02-.57.02-1.08.03-.2.02c-.05.01-.09.01-.12.02l-.08.03-.1.05-.1.07q-.06.045-.15.12l-.1.08-1.84 1.58a1.148 1.148 0 0 1-1.89-.74l-.01-.13v-1.19l-.4-.02-.51-.03c-1.27-.1-1.83-.28-2.38-.77l-.1-.1-.09-.09c-.66-.66-.85-1.21-.94-2.76l-.03-.5-.02-.54a48 48 0 0 1 0-3.42l.02-.54c.09-1.95.25-2.53.97-3.26C1.72.4 2.3.22 4.12.11L4.9.07l.78-.03C6.47.02 7.28 0 8.11 0zm0 3.18a.8.8 0 0 0-.79.7l-.01.1v1.83H5.48l-.1.01c-.39.05-.7.39-.7.79 0 .41.31.74.7.79l.1.01H7.3v1.82l.01.1c.05.39.39.7.79.7a.8.8 0 0 0 .79-.7l.01-.1V7.41h1.83l.1-.01c.39-.05.7-.39.7-.79a.8.8 0 0 0-.7-.79l-.1-.01H8.9V3.98l-.01-.1a.81.81 0 0 0-.79-.7" font-family="none" font-size="none" font-weight="none" style="mix-blend-mode:normal" text-anchor="none"/></svg>