<svg xmlns="http://www.w3.org/2000/svg" width="15.25" height="15.9" viewBox="0 0 15.25 15.9"><path fill="currentColor" stroke-miterlimit="10" d="m9.11 0 .26.79c.11.33.26.64.44.93.46.73 1.26 1.19 2.12 1.22.26.01.52 0 .77-.04l.25-.04.82-.17 1.48 2.57-.55.62c-.23.26-.43.54-.58.84-.4.77-.4 1.68 0 2.45.12.23.26.44.42.65l.17.2.55.62-1.48 2.57-.82-.17c-.34-.07-.68-.1-1.02-.08-.86.04-1.66.49-2.12 1.22-.14.22-.25.45-.35.69l-.09.24-.26.79H6.16l-.26-.79c-.11-.33-.26-.64-.44-.93a2.63 2.63 0 0 0-2.12-1.22c-.26-.01-.52 0-.77.04l-.25.04-.82.17-1.48-2.57.55-.62c.23-.26.42-.54.58-.84.4-.77.4-1.68 0-2.45a4.5 4.5 0 0 0-.42-.65l-.17-.2-.55-.62 1.48-2.57.82.17c.34.07.68.1 1.02.08a2.65 2.65 0 0 0 2.12-1.22c.14-.22.25-.45.35-.69l.09-.24.26-.79zm-.79 1.42-.08-.22H7l-.08.22c-.06.16-.14.32-.21.48l-.12.23-.14.23a3.84 3.84 0 0 1-3.09 1.78c-.33.01-.66 0-.99-.05l-.29-.05-.62 1.07.15.18c.11.14.21.28.31.43l.14.22.13.23a3.86 3.86 0 0 1 0 3.56c-.16.31-.36.61-.58.88l-.15.18.62 1.07.29-.05c.15-.02.29-.04.44-.04l.22-.01h.33c1.26.05 2.41.72 3.08 1.78.19.3.34.61.47.94l.08.22h1.24l.1-.28c.05-.14.11-.27.18-.4l.1-.19.17-.29a3.84 3.84 0 0 1 3.09-1.78c.33-.01.66 0 .99.05l.29.05.62-1.07-.15-.18c-.11-.14-.21-.28-.31-.43l-.14-.22-.13-.23a3.86 3.86 0 0 1 0-3.56c.16-.31.36-.6.58-.88l.15-.18-.62-1.07-.29.05c-.15.02-.29.04-.44.04l-.22.01h-.33a3.83 3.83 0 0 1-3.08-1.78c-.19-.3-.35-.61-.47-.94M7.63 4.9a3.05 3.05 0 1 1 0 6.1 3.05 3.05 0 1 1 0-6.1m0 1.2c-1.02 0-1.85.83-1.85 1.85S6.61 9.8 7.63 9.8s1.85-.83 1.85-1.85S8.65 6.1 7.63 6.1" font-family="none" font-size="none" font-weight="none" style="mix-blend-mode:normal" text-anchor="none"/></svg>