<svg xmlns="http://www.w3.org/2000/svg" width="17.11" height="12" viewBox="0 0 17.11 12"><path fill="currentColor" stroke-miterlimit="10" d="M2.99.51c1.55 2.89 4.03 4.38 7.56 4.53.18-.01.36-.01.55-.01V2.64l.01-.12c.04-.28.21-.52.47-.64a.87.87 0 0 1 .8.03l.1.07 4.31 3.35.08.07.07.08q.105.135.15.3l.02.11.01.11-.01.11c-.02.18-.11.35-.24.49l-.08.07-4.31 3.35-.1.07c-.24.14-.54.15-.8.03a.84.84 0 0 1-.47-.64l-.01-.12V6.99h-.25c-.1 0-.2 0-.3-.01-3.53.15-6.01 1.64-7.56 4.53a.96.96 0 1 1-1.69-.91c.28-.52.59-1.01.93-1.46A3.315 3.315 0 0 1 .01 6.01c0-1.44.92-2.67 2.21-3.13-.33-.44-.64-.93-.91-1.44A.957.957 0 0 1 1.7.14.957.957 0 0 1 3 .53zM1.5 5.99a1.82 1.82 0 0 0 3.64 0l-.01-.17c0-.02 0-.04-.01-.06l-.03-.16-.04-.14c-.21-.7-.84-1.22-1.59-1.28h-.15c-1 0-1.82.81-1.82 1.82z" font-family="none" font-size="none" font-weight="none" style="mix-blend-mode:normal" text-anchor="none"/></svg>